<svg xmlns="http://www.w3.org/2000/svg" viewBox="0 0 64 64">
  <defs>
    <linearGradient id="g" x1="0" y1="0" x2="1" y2="1">
      <stop offset="0%" stop-color="#3b9eff"/>
      <stop offset="100%" stop-color="#6644ff"/>
    </linearGradient>
  </defs>
  <rect width="64" height="64" rx="14" fill="url(#g)"/>
  <path d="M32 12a20 20 0 0 0-19.9 18h.1a10 10 0 0 1 10-10 10 10 0 0 1 10 10h.1A20 20 0 0 0 32 12zM12 32a20 20 0 0 0 20 20 20 20 0 0 0 20-20H12zm20 12a12 12 0 0 1-10.4-6l5.4 2.2a4 4 0 0 0 5-2 4 4 0 0 0-2-5.4l-5.6-2.2A12 12 0 0 1 32 44z" fill="#fff"/>
  <path d="M44 26l-8 8h5v6h6v-6h5l-8-8z" fill="#fff" opacity="0.9"/>
</svg>